<svg xmlns="http://www.w3.org/2000/svg" viewBox="0 0 200 60" width="120" height="48">
  <!-- AWS Certified Logo -->
  <g>
    <!-- AWS Cloud Icon (simplified) -->
    <path d="M10 25 Q15 20 20 25 Q25 20 30 25 Q35 20 40 25 Q45 20 50 25 Q55 20 60 25 Q65 20 70 25 Q75 20 80 25 Q85 20 90 25 Q90 35 80 35 Q75 30 70 35 Q65 30 60 35 Q55 30 50 35 Q45 30 40 35 Q35 30 30 35 Q25 30 20 35 Q15 30 10 35 Z" fill="#FF9900"/>
    
    <!-- AWS Text -->
    <text x="100" y="28" font-family="Arial, sans-serif" font-size="20" font-weight="700" fill="#232F3E" letter-spacing="-1">AWS</text>
    <text x="100" y="42" font-family="Arial, sans-serif" font-size="9" fill="#666" letter-spacing="2" font-weight="600">CERTIFIED</text>
  </g>
</svg>
